<svg width="256" height="256" viewBox="0 0 256 256" fill="none" xmlns="http://www.w3.org/2000/svg">
  <!-- Achtergrond voor contrast tijdens bekijken (optioneel, verwijder voor gebruik) -->
  <!-- <rect width="256" height="256" fill="#f0f0f0"/> -->

  <!-- Map Basis -->
  <rect x="36" y="68" width="184" height="120" rx="16" fill="#2563EB" stroke="#1E293B" stroke-width="5"/>
  <!-- Map Tab -->
  <path d="M42 68V56a8 8 0 0 1 8-8h60l18 22h68a8 8 0 0 1 8 8v8" fill="#3B82F6" stroke="#1E293B" stroke-width="5"/>

  <!-- "AI" / "Smart" Element Container -->
  <rect x="98" y="106" width="60" height="44" rx="8" fill="white" stroke="#1E293B" stroke-width="4"/>

  <!-- Simpeler AI Symbool (bijv. een gestileerd brein/netwerk-icoon of een "spark") -->
  <!-- Optie A: Spark/Shine -->
  <path d="M128 116 L132 124 L140 126 L132 130 L128 138 L124 130 L116 126 L124 124Z" fill="#2563EB"/>
  <circle cx="128" cy="127" r="3" fill="#FFFFFF"/>

  <!-- Optie B: Simpele Node (vervang Optie A hiermee) -->
  <!--
  <circle cx="128" cy="128" r="8" fill="#2563EB"/>
  <line x1="128" y1="118" x2="128" y2="110" stroke="#2563EB" stroke-width="3" stroke-linecap="round"/>
  <line x1="128" y1="138" x2="128" y2="146" stroke="#2563EB" stroke-width="3" stroke-linecap="round"/>
  <line x1="118" y1="128" x2="110" y2="128" stroke="#2563EB" stroke-width="3" stroke-linecap="round"/>
  <line x1="138" y1="128" x2="146" y2="128" stroke="#2563EB" stroke-width="3" stroke-linecap="round"/>
  -->
</svg>