<svg width="256" height="256" viewBox="0 0 256 256" fill="none" xmlns="http://www.w3.org/2000/svg">
  <!-- Achtergrond voor contrast (optioneel) -->
  <!-- <rect width="256" height="256" fill="#f0f0f0"/> -->

  <defs>
    <linearGradient id="grad1" x1="0%" y1="0%" x2="100%" y2="100%">
      <stop offset="0%" style="stop-color:#3B82F6;stop-opacity:1" />
      <stop offset="100%" style="stop-color:#2563EB;stop-opacity:1" />
    </linearGradient>
     <linearGradient id="grad2" x1="0%" y1="0%" x2="100%" y2="100%">
      <stop offset="0%" style="stop-color:#FFFFFF;stop-opacity:1" />
      <stop offset="100%" style="stop-color:#E0E7FF;stop-opacity:1" />
    </linearGradient>
  </defs>

  <!-- Abstracte representatie van data/bestanden -->
  <rect x="40" y="80" width="176" height="100" rx="12" fill="url(#grad1)" stroke="#1E293B" stroke-width="5"/>
  <path d="M50 80 L50 70 Q50 60 60 60 H100 L115 80 Z" fill="#3B82F6" stroke="#1E293B" stroke-width="5"/>
  <path d="M60 100h136M60 120h136M60 140h80" stroke="#FFFFFF" stroke-opacity="0.5" stroke-width="4" stroke-linecap="round"/>


  <!-- Gestileerd AI "Brein" / Netwerk Symbool -->
  <circle cx="128" cy="128" r="35" fill="url(#grad2)" stroke="#1E293B" stroke-width="4"/>
  <!-- Knopen -->
  <circle cx="128" cy="108" r="5" fill="#2563EB"/>
  <circle cx="128" cy="148" r="5" fill="#2563EB"/>
  <circle cx="108" cy="128" r="5" fill="#2563EB"/>
  <circle cx="148" cy="128" r="5" fill="#2563EB"/>
  <circle cx="115" cy="115" r="4" fill="#3B82F6"/>
  <circle cx="141" cy="115" r="4" fill="#3B82F6"/>
  <circle cx="115" cy="141" r="4" fill="#3B82F6"/>
  <circle cx="141" cy="141" r="4" fill="#3B82F6"/>
  <!-- Verbindingen -->
  <path d="M128 108 L115 115 M128 108 L141 115
           M108 128 L115 115 M108 128 L115 141
           M128 148 L115 141 M128 148 L141 141
           M148 128 L141 115 M148 128 L141 141"
        stroke="#3B82F6" stroke-width="2.5" stroke-linecap="round"/>
</svg>